<mxfile host="app.diagrams.net" modified="2023-04-13T03:07:33.729Z" agent="Mozilla/5.0 (Windows NT 10.0; Win64; x64) AppleWebKit/537.36 (KHTML, like Gecko) Chrome/112.0.0.0 Safari/537.36" version="21.1.7" etag="nGwLfNHj3UFb4PADjmq0" type="github">
  <diagram name="페이지-1" id="zXveCctOYys2oxlNoX-1">
    <mxGraphModel>
      <root>
        <mxCell id="0" />
        <mxCell id="1" parent="0" />
      </root>
    </mxGraphModel>
  </diagram>
</mxfile>
